# xmcd
#
# Track frame offsets: 
#        183
#        12268
#        25980
#        39778
#        53115
#        66405
#        81485
#        96238
#        110410
#        124078
#        137948
#        150100
#
# Disc length: 2161 seconds
#
# Revision: 0
# Processed by: cddbd v1.5.2PL0 Copyright (c) Steve Scherf et al.
# Submitted via: ExactAudioCopy v0.99pb3
#
DISCID=98086f0c
DTITLE=Louis Armstrong - Swing You Cats
DYEAR=1991
DGENRE=Blues
TTITLE0=Swing you cats
TTITLE1=Honey don't you love me anymore
TTITLE2=Some sweet day
TTITLE3=Dusky Stevedore
TTITLE4=Don't play me cheap
TTITLE5=You'll wish you'd never been born
TTITLE6=I've got the world on a string
TTITLE7=Mississippi basin
TTITLE8=I gotta right to sing the blues
TTITLE9=Sittin' in the dark
TTITLE10=He's a son of the south
TTITLE11=Sweet Sue - just you
EXTD=
EXTT0=
EXTT1=
EXTT2=
EXTT3=
EXTT4=
EXTT5=
EXTT6=
EXTT7=
EXTT8=
EXTT9=
EXTT10=
EXTT11=
PLAYORDER=
